<svg width="448" height="425" viewBox="0 0 448 425" fill="none" xmlns="http://www.w3.org/2000/svg">
<path d="M261.46 410.132H259.433C258.602 409.245 257.519 408.419 256.178 407.679C249.136 403.799 237.615 403.799 230.58 407.679C229.239 408.419 228.156 409.245 227.324 410.132H225.298V414.699C225.284 417.265 227.038 419.839 230.58 421.785C237.622 425.665 249.143 425.665 256.178 421.785C259.713 419.839 261.473 417.265 261.46 414.699V410.132Z" fill="url(#paint0_linear_2_5005)"/>
<path d="M230.58 403.079C237.622 399.199 249.143 399.199 256.178 403.079C263.22 406.959 263.22 413.305 256.178 417.185C249.136 421.065 237.615 421.065 230.58 417.185C223.538 413.305 223.538 406.959 230.58 403.079Z" fill="url(#paint1_linear_2_5005)"/>
<path fill-rule="evenodd" clip-rule="evenodd" d="M247.801 406.785C250.498 408.172 252.21 409.905 252.496 411.539C252.65 412.412 252.391 413.232 251.742 413.919C250.903 414.785 249.646 415.259 248.193 415.259C247.019 415.259 245.768 414.945 244.678 414.385C244.238 414.159 243.484 413.672 243.393 413.005C243.372 412.885 243.379 412.732 243.442 412.565C243.26 412.579 243.079 412.585 242.897 412.585C241.744 412.585 240.633 412.299 239.495 411.712C238.517 411.212 237.888 410.525 237.769 409.839C237.692 409.392 237.832 408.959 238.181 408.599C238.852 407.905 240.026 407.525 241.493 407.525C243.135 407.525 244.958 407.999 246.628 408.859C247.578 409.352 248.444 409.925 249.003 410.439L249.275 410.685L246.25 412.419C245.475 412.845 245.419 413.105 245.419 413.172C245.419 413.279 245.545 413.405 245.775 413.525C246.222 413.765 246.795 413.892 247.396 413.892C248.388 413.892 249.303 413.539 249.904 412.912C250.4 412.392 250.596 411.819 250.491 411.205C250.288 410.032 248.996 408.779 246.858 407.679C244.888 406.665 242.75 406.105 240.829 406.105C238.992 406.105 237.538 406.612 236.616 407.565C236.085 408.119 235.876 408.739 235.995 409.412C236.218 410.699 237.608 412.079 239.802 413.212C241.15 413.905 242.492 414.399 243.672 414.645L243.924 414.699L243.791 415.912L243.477 415.839C241.919 415.492 240.466 414.945 238.768 414.072C236.057 412.679 234.262 410.819 233.961 409.099C233.794 408.159 234.08 407.279 234.779 406.552C235.904 405.392 237.79 404.752 240.102 404.752C242.527 404.752 245.258 405.479 247.801 406.785ZM240.207 409.712C240.081 409.845 240.026 409.979 240.054 410.119C240.095 410.379 240.403 410.659 240.892 410.912C241.451 411.192 242.177 411.352 242.953 411.352C243.728 411.352 244.483 411.192 244.923 410.932L246.243 410.172C246.02 410.032 245.775 409.885 245.51 409.752C244.567 409.259 243.477 408.992 242.457 408.992C241.465 408.992 240.647 409.259 240.207 409.712Z" fill="white"/>
<path d="M107.857 196.672L182.299 173.342L372.812 290.055L314.641 318.707L107.857 196.672Z" fill="#DDDDDD"/>
<path d="M178.493 158.924L252.935 135.594L443.448 252.307L385.277 280.959L178.493 158.924Z" fill="#DDDDDD"/>
<path d="M212.489 3.95047L418.545 120.433L447.567 243.325C449.645 251.699 440.544 258.445 432.987 254.135L242.797 148.984L212.489 3.95047Z" fill="#D1E1F2"/>
<path d="M447.567 243.319L418.545 120.433L212.489 3.95047L213.253 7.04578L414.023 121.565L442.913 243.319C444.323 249.015 440.558 253.95 435.626 255.171C442.483 256.853 449.401 250.738 447.567 243.319Z" fill="url(#paint2_linear_2_5005)"/>
<path d="M418.545 120.433L427.999 161.276L423.9 163.637L414.022 121.565L418.545 120.433Z" fill="#4A66A4"/>
<path d="M423.901 163.637L387.376 142.978L385.542 105.327L414.023 121.565L423.901 163.637Z" fill="url(#paint3_linear_2_5005)"/>
<path d="M418.545 120.433L212.489 3.95047L207.835 3.95733L414.023 121.565L418.545 120.433Z" fill="url(#paint4_linear_2_5005)"/>
<path d="M207.835 3.95734L414.022 121.572L382.93 280.016C381.235 288.643 371.447 293.056 363.743 288.664L184.3 186.306C177.707 182.545 174.255 175.064 175.7 167.679L207.835 3.95734Z" fill="white"/>
<path d="M217.185 83.5843L232.877 92.5339C234.697 93.5702 235.635 95.6498 235.197 97.6813L232.043 112.403C231.536 114.764 228.848 115.951 226.736 114.743L211.044 105.794C209.224 104.757 208.286 102.678 208.724 100.646L211.877 85.9246C212.378 83.5637 215.066 82.3763 217.185 83.5843Z" fill="#DEEAF9"/>
<path d="M252.147 103.735L267.839 112.684C269.659 113.721 270.597 115.8 270.159 117.832L267.005 132.553C266.498 134.914 263.81 136.095 261.698 134.894L246.006 125.944C244.186 124.908 243.248 122.828 243.686 120.797L246.84 106.075C247.34 103.714 250.028 102.527 252.147 103.735Z" fill="#DEEAF9"/>
<path d="M287.102 123.885L302.794 132.835C304.614 133.871 305.552 135.951 305.114 137.982L301.961 152.704C301.453 155.065 298.765 156.252 296.653 155.044L280.961 146.094C279.141 145.058 278.203 142.978 278.641 140.947L281.795 126.225C282.302 123.864 284.99 122.677 287.102 123.885Z" fill="#DEEAF9"/>
<path d="M322.064 144.035L337.756 152.985C339.576 154.021 340.514 156.101 340.076 158.132L336.923 172.847C336.415 175.208 333.727 176.389 331.615 175.187L315.923 166.238C314.103 165.202 313.165 163.122 313.603 161.09L316.757 146.369C317.264 144.008 319.952 142.827 322.064 144.035Z" fill="#DEEAF9"/>
<path d="M357.026 164.179L372.718 173.129C374.538 174.165 375.476 176.244 375.038 178.276L371.885 192.998C371.378 195.358 368.689 196.546 366.577 195.338L350.885 186.388C349.065 185.352 348.127 183.272 348.565 181.241L351.719 166.519C352.219 164.158 354.914 162.978 357.026 164.179Z" fill="#DEEAF9"/>
<path d="M210.078 117.372L225.771 126.321C227.591 127.358 228.528 129.437 228.091 131.469L224.937 146.19C224.43 148.551 221.742 149.732 219.63 148.531L203.938 139.581C202.118 138.545 201.18 136.465 201.617 134.434L204.771 119.712C205.278 117.351 207.967 116.171 210.078 117.372Z" fill="#DEEAF9"/>
<path d="M245.04 137.522L260.733 146.472C262.553 147.508 263.49 149.588 263.053 151.619L259.899 166.341C259.392 168.702 256.704 169.889 254.592 168.681L238.9 159.732C237.08 158.695 236.142 156.616 236.579 154.584L239.733 139.863C240.233 137.502 242.929 136.314 245.04 137.522Z" fill="#DEEAF9"/>
<path d="M280.002 157.673L295.695 166.622C297.515 167.659 298.453 169.738 298.015 171.77L294.861 186.491C294.354 188.852 291.666 190.033 289.554 188.832L273.862 179.882C272.042 178.846 271.104 176.766 271.542 174.735L274.695 160.013C275.195 157.652 277.884 156.465 280.002 157.673Z" fill="#DEEAF9"/>
<path d="M314.965 177.823L330.657 186.773C332.477 187.809 333.415 189.888 332.977 191.92L329.823 206.642C329.316 209.003 326.628 210.19 324.516 208.982L308.824 200.032C307.004 198.996 306.066 196.916 306.504 194.885L309.657 180.163C310.157 177.802 312.846 176.615 314.965 177.823Z" fill="#DEEAF9"/>
<path d="M349.92 197.973L365.612 206.923C367.432 207.959 368.37 210.039 367.932 212.07L364.778 226.792C364.271 229.153 361.583 230.333 359.471 229.132L343.779 220.183C341.959 219.146 341.021 217.067 341.459 215.035L344.612 200.314C345.12 197.953 347.808 196.765 349.92 197.973Z" fill="#DEEAF9"/>
<path d="M202.979 151.166L218.671 160.116C220.491 161.152 221.429 163.232 220.991 165.263L217.838 179.985C217.331 182.346 214.642 183.533 212.53 182.325L196.838 173.376C195.018 172.339 194.08 170.26 194.518 168.228L197.672 153.507C198.172 151.146 200.86 149.958 202.979 151.166Z" fill="#DEEAF9"/>
<path d="M237.941 171.317L253.633 180.266C255.453 181.303 256.391 183.382 255.953 185.414L252.8 200.135C252.293 202.496 249.604 203.677 247.492 202.476L231.8 193.526C229.98 192.49 229.042 190.41 229.48 188.379L232.634 173.657C233.134 171.289 235.822 170.109 237.941 171.317Z" fill="#DEEAF9"/>
<path d="M272.896 191.46L288.588 200.41C290.408 201.446 291.346 203.526 290.908 205.557L287.755 220.279C287.248 222.64 284.559 223.827 282.448 222.619L266.755 213.669C264.935 212.633 263.997 210.554 264.435 208.522L267.589 193.801C268.096 191.44 270.784 190.259 272.896 191.46Z" fill="#DEEAF9"/>
<path d="M307.858 211.611L323.55 220.56C325.37 221.597 326.308 223.676 325.871 225.708L322.717 240.429C322.21 242.79 319.521 243.971 317.41 242.77L301.717 233.82C299.897 232.784 298.96 230.704 299.397 228.672L302.551 213.951C303.058 211.59 305.746 210.403 307.858 211.611Z" fill="#DEEAF9"/>
<path d="M342.82 231.761L358.513 240.711C360.333 241.747 361.27 243.826 360.833 245.858L357.679 260.58C357.172 262.94 354.484 264.128 352.372 262.92L336.679 253.97C334.859 252.934 333.922 250.854 334.359 248.823L337.513 234.101C338.013 231.74 340.708 230.553 342.82 231.761Z" fill="#DEEAF9"/>
<path d="M207.835 3.95734L207.369 6.34573L409.368 121.572L378.275 280.016C377.206 285.486 372.878 289.247 367.89 290.16C374.601 291.382 381.533 287.147 382.93 280.016L414.023 121.572L207.835 3.95734Z" fill="url(#paint5_linear_2_5005)"/>
<path d="M198.804 49.982L400.817 165.119L414.023 121.572L207.835 3.95734L198.804 49.982Z" fill="url(#paint6_linear_2_5005)"/>
<path d="M409.368 121.572L400.817 165.119L405.576 164.618L414.023 121.572H409.368Z" fill="#4A66A4"/>
<path d="M236.559 43.2012C233.599 43.2012 230.862 42.1854 228.765 40.2843C226.806 38.5136 224.479 35.1506 224.479 29.2139C224.479 19.1937 231.356 7.42325 240.136 2.41997C245.11 -0.414532 250.243 -0.743966 254.21 1.51403C258.176 3.77889 260.455 8.32919 260.455 14.0051C260.455 18.6652 258.947 23.9155 256.203 28.7747L248.069 24.2999C250.021 20.834 251.146 17.0798 251.146 14.0051C251.146 11.7745 250.535 10.0381 249.556 9.48221C248.576 8.91943 246.749 9.26945 244.797 10.3813C238.934 13.7237 233.794 22.5223 233.794 29.2139C233.794 31.2111 234.259 32.7759 235.065 33.5034C235.343 33.7574 235.836 34.0799 236.892 33.9839L237.698 43.1531C237.309 43.1874 236.934 43.2012 236.559 43.2012Z" fill="#3C5186"/>
<path d="M236.559 43.2012C233.599 43.2012 230.862 42.1854 228.765 40.2843C226.806 38.5136 224.479 35.1506 224.479 29.2139C224.479 19.1937 231.356 7.42325 240.136 2.41997C245.11 -0.414532 250.243 -0.743966 254.21 1.51403C258.176 3.77889 260.455 8.32919 260.455 14.0051C260.455 16.5445 258.371 18.6034 255.801 18.6034C253.23 18.6034 251.146 16.5445 251.146 14.0051C251.146 11.7745 250.535 10.0381 249.556 9.48221C248.576 8.91943 246.749 9.26945 244.797 10.3813C238.934 13.7237 233.794 22.5223 233.794 29.2139C233.794 31.2111 234.259 32.7759 235.065 33.5034C235.343 33.7574 235.836 34.0799 236.892 33.9839C239.434 33.7711 241.713 35.6379 241.935 38.1704C242.158 40.7029 240.261 42.9335 237.698 43.1531C237.309 43.1874 236.934 43.2012 236.559 43.2012Z" fill="#3C5186"/>
<path d="M271.854 63.6466C268.895 63.6466 266.158 62.6309 264.06 60.7298C262.101 58.9591 259.774 55.5961 259.774 49.6594C259.774 39.6391 266.651 27.8687 275.432 22.8655C280.405 20.0241 285.532 19.7015 289.505 21.9595C293.472 24.2244 295.75 28.7747 295.75 34.4506C295.75 39.1107 294.243 44.3542 291.499 49.2202L283.365 44.7454C285.317 41.2795 286.435 37.5253 286.435 34.4506C286.435 32.22 285.824 30.4836 284.844 29.9277C283.865 29.3649 282.038 29.715 280.086 30.8337C274.223 34.176 269.082 42.9747 269.082 49.6594C269.082 51.6566 269.548 53.2214 270.354 53.9489C270.632 54.2029 271.125 54.5254 272.181 54.4294L272.986 63.5986C272.604 63.6329 272.229 63.6466 271.854 63.6466Z" fill="#3C5186"/>
<path d="M271.854 63.6466C268.895 63.6466 266.158 62.6309 264.06 60.7298C262.101 58.9591 259.774 55.5961 259.774 49.6594C259.774 39.6391 266.651 27.8687 275.432 22.8655C280.405 20.0241 285.532 19.7015 289.505 21.9595C293.472 24.2244 295.75 28.7747 295.75 34.4506C295.75 36.99 293.666 39.0489 291.096 39.0489C288.526 39.0489 286.442 36.99 286.442 34.4506C286.442 32.22 285.831 30.4836 284.851 29.9277C283.872 29.3649 282.045 29.715 280.093 30.8337C274.23 34.176 269.089 42.9747 269.089 49.6594C269.089 51.6566 269.555 53.2214 270.361 53.9489C270.638 54.2029 271.132 54.5254 272.188 54.4294C274.723 54.2097 277.008 56.0834 277.231 58.6159C277.453 61.1484 275.557 63.379 272.993 63.5986C272.604 63.6329 272.229 63.6466 271.854 63.6466Z" fill="#3C5186"/>
<path d="M307.351 83.8588C304.392 83.8588 301.655 82.8431 299.557 80.9419C297.598 79.1712 295.271 75.8083 295.271 69.8716C295.271 59.8513 302.148 48.0809 310.929 43.0776C315.902 40.2431 321.036 39.9137 325.002 42.1717C328.969 44.4365 331.247 48.9868 331.247 54.6627C331.247 59.3228 329.74 64.5732 326.996 69.4323L318.862 64.9575C320.814 61.4916 321.932 57.7443 321.932 54.6627C321.932 52.4322 321.321 50.6958 320.348 50.1399C319.369 49.5771 317.542 49.9271 315.59 51.0389C309.727 54.3813 304.586 63.18 304.586 69.8716C304.586 71.8688 305.052 73.4336 305.858 74.1611C306.135 74.415 306.622 74.7376 307.685 74.6415L308.49 83.8108C308.101 83.8451 307.726 83.8588 307.351 83.8588Z" fill="#3C5186"/>
<path d="M307.351 83.8588C304.392 83.8588 301.655 82.8431 299.557 80.9419C297.598 79.1712 295.271 75.8083 295.271 69.8716C295.271 59.8513 302.148 48.0809 310.929 43.0776C315.902 40.2431 321.036 39.9137 325.002 42.1717C328.969 44.4365 331.247 48.9868 331.247 54.6627C331.247 57.2021 329.163 59.2611 326.593 59.2611C324.023 59.2611 321.939 57.2021 321.939 54.6627C321.939 52.4322 321.328 50.6958 320.355 50.1399C319.376 49.5771 317.549 49.9271 315.597 51.0389C309.734 54.3813 304.593 63.18 304.593 69.8716C304.593 71.8688 305.059 73.4336 305.865 74.1611C306.142 74.415 306.629 74.7376 307.691 74.6415C310.227 74.415 312.512 76.2956 312.735 78.8281C312.957 81.3606 311.061 83.5911 308.497 83.8108C308.101 83.8451 307.726 83.8588 307.351 83.8588Z" fill="#3C5186"/>
<path d="M342.438 103.687C339.479 103.687 336.742 102.671 334.644 100.77C332.692 98.999 330.358 95.6361 330.358 89.6994C330.358 79.6791 337.235 67.9087 346.016 62.9054C350.989 60.064 356.123 59.7415 360.089 61.9995C364.056 64.2643 366.334 68.8146 366.334 74.4905C366.334 79.1506 364.827 84.3941 362.083 89.2601L353.949 84.7853C355.901 81.3194 357.026 77.5652 357.026 74.4905C357.026 72.26 356.415 70.5236 355.442 69.9677C354.456 69.4117 352.636 69.7549 350.684 70.8736C344.821 74.216 339.68 83.0146 339.68 89.6994C339.68 91.6966 340.146 93.2614 340.952 93.9889C341.229 94.236 341.716 94.5654 342.778 94.4693L343.584 103.639C343.188 103.673 342.813 103.687 342.438 103.687Z" fill="#3C5186"/>
<path d="M342.438 103.687C339.479 103.687 336.742 102.671 334.644 100.77C332.692 98.999 330.358 95.6361 330.358 89.6994C330.358 79.6791 337.235 67.9087 346.016 62.9054C350.989 60.064 356.123 59.7415 360.089 61.9995C364.056 64.2643 366.334 68.8146 366.334 74.4905C366.334 77.0299 364.25 79.0889 361.68 79.0889C359.11 79.0889 357.026 77.0299 357.026 74.4905C357.026 72.26 356.415 70.5236 355.442 69.9677C354.456 69.4117 352.636 69.7549 350.684 70.8736C344.821 74.216 339.68 83.0146 339.68 89.6994C339.68 91.6966 340.146 93.2614 340.952 93.9889C341.229 94.236 341.716 94.5654 342.778 94.4693C345.342 94.2634 347.599 96.1233 347.822 98.6559C348.044 101.188 346.148 103.419 343.584 103.639C343.188 103.673 342.813 103.687 342.438 103.687Z" fill="#3C5186"/>
<path d="M377.775 123.912C374.816 123.912 372.079 122.897 369.981 120.996C368.022 119.225 365.688 115.862 365.688 109.925C365.688 99.905 372.565 88.1346 381.346 83.1313C386.32 80.2968 391.453 79.9674 395.42 82.2253C399.386 84.4902 401.664 89.0405 401.664 94.7164C401.664 99.3765 400.157 104.627 397.413 109.486L389.279 105.011C391.231 101.545 392.349 97.798 392.349 94.7164C392.349 92.4858 391.738 90.7495 390.765 90.1935C389.786 89.6307 387.959 89.9808 386.007 91.0926C380.144 94.435 375.004 103.234 375.004 109.925C375.004 111.922 375.469 113.487 376.275 114.215C376.553 114.462 377.032 114.784 378.102 114.695L378.908 123.864C378.525 123.899 378.15 123.912 377.775 123.912Z" fill="#3C5186"/>
<path d="M377.775 123.912C374.816 123.912 372.079 122.897 369.981 120.996C368.022 119.225 365.688 115.862 365.688 109.925C365.688 99.905 372.565 88.1346 381.346 83.1313C386.32 80.2968 391.453 79.9674 395.42 82.2253C399.386 84.4902 401.664 89.0405 401.664 94.7164C401.664 97.2558 399.581 99.3147 397.01 99.3147C394.44 99.3147 392.356 97.2558 392.356 94.7164C392.356 92.4858 391.745 90.7495 390.772 90.1935C389.793 89.6307 387.966 89.9808 386.014 91.0926C380.151 94.435 375.011 103.234 375.011 109.925C375.011 111.922 375.476 113.487 376.282 114.215C376.56 114.462 377.039 114.784 378.109 114.695C380.686 114.482 382.93 116.349 383.152 118.882C383.374 121.414 381.478 123.645 378.914 123.864C378.525 123.899 378.15 123.912 377.775 123.912Z" fill="#3C5186"/>
<path opacity="0.3" d="M246.149 167.689C246.547 167.929 246.925 167.826 246.994 167.469L253.057 135.208C253.126 134.851 252.858 134.358 252.459 134.118L190.57 96.8188L184.068 130.28L245.826 167.497L246.149 167.689Z" fill="#4A66A4"/>
<path d="M133.463 167.667L135.764 173.075L139.178 175.748C140.008 175.802 140.643 176.481 140.643 177.303C140.643 178.386 139.759 179.264 138.674 179.264H133.014C131.597 179.264 130.236 178.715 129.22 177.735L121.895 170.676C120.402 169.236 120.61 166.803 122.323 165.638L124.217 164.35L126.207 163.232L133.463 167.667Z" fill="#3C5186"/>
<path d="M100.769 157.119L101.778 163.417L104.328 166.906C105.109 167.18 105.538 168.01 105.316 168.798C105.019 169.84 103.934 170.443 102.884 170.148L97.4453 168.626C96.0839 168.243 94.9229 167.352 94.2111 166.138L89.0973 157.386C88.0538 155.604 88.9176 153.322 90.8872 152.657L93.0571 151.923L95.2754 151.382L100.769 157.119Z" fill="#3C5186"/>
<path d="M177.366 103C178.748 103 179.64 102.904 180.283 101.588C181.174 99.7512 180.151 97.9418 178.299 97.0507L145.426 80.7727C143.574 79.8816 141.348 80.6561 140.457 82.4861C139.565 84.323 140.339 86.5231 142.184 87.4141L175.742 102.63C176.274 102.883 176.827 103 177.366 103Z" fill="#F3B3B6"/>
<path d="M171.935 101.204C173.489 101.204 174.982 100.341 175.708 98.8602C176.717 96.7972 175.846 94.316 173.759 93.3154L146.745 80.3546C144.665 79.3539 142.164 80.2175 141.155 82.2874C140.146 84.3504 141.017 86.8315 143.104 87.8322L170.117 100.793C170.704 101.067 171.326 101.204 171.935 101.204Z" fill="#D1E1F2"/>
<path d="M101.26 157.105C102.628 157.105 119.124 150.642 119.124 150.642C120.596 149.956 121.75 148.729 122.33 147.228L131.95 122.369C133.346 118.764 131.756 114.556 128.163 113.068C124.452 111.533 120.223 113.349 118.799 117.044L109.767 140.381L97.1965 150.23C93.9485 152.41 95.0887 152.17 97.2863 155.391C98.6546 157.406 98.9794 157.105 101.26 157.105Z" fill="url(#paint7_linear_2_5005)"/>
<path d="M130.692 168.147C132.682 168.147 134.666 167.317 136.069 165.707L154.423 145.371C156.621 143.616 157.18 140.525 155.743 138.12L142.461 115.954C140.305 112.349 135.412 111.355 131.964 114.014C129.116 116.214 119.898 115.735 121.743 118.819L140.809 140.786L126.076 163.205C125.177 164.24 125.267 165.851 126.359 166.687C127.651 167.667 129.172 168.147 130.692 168.147Z" fill="url(#paint8_linear_2_5005)"/>
<path d="M166.993 121.094C168.417 121.094 169.274 120.587 169.889 119.216C170.725 117.359 169.841 115.926 167.968 115.097L148.114 105.515L137.409 91.081C136.193 89.436 133.864 89.0865 132.206 90.2928C130.554 91.4991 130.195 93.8088 131.411 95.4538L143.276 111.458L165.473 120.772C165.971 120.992 166.489 121.094 166.993 121.094Z" fill="#F3B3B6"/>
<path d="M121.059 98.9973C123.18 90.6834 125.191 84.2065 131.908 80.3614L139.669 76.3724C145.135 73.2402 151.97 77.1538 151.97 83.4183L146.531 103.219L147.174 104.09L164.132 111.547C166.13 112.431 167.028 114.761 166.136 116.742C165.48 118.202 164.146 119.778 162.633 119.778C162.094 119.778 161.541 119.669 161.016 119.436L144.119 112.006L142.613 117.503C138.757 126.488 126.103 121.512 117.576 116.632L121.059 98.9973Z" fill="#D1E1F2"/>
<path d="M168.624 114.583C166.551 116.66 165.853 119.312 167.076 120.512C168.293 121.711 170.967 120.998 173.04 118.915C175.113 116.838 175.811 114.186 174.588 112.986C173.372 111.794 170.704 112.506 168.624 114.583Z" fill="#F3B3B6"/>
<path d="M142.33 83.2332L137.568 82.5958C137.382 82.5684 137.25 82.397 137.271 82.212L138.404 73.9393C138.418 73.8228 138.529 73.7405 138.646 73.7611L143.663 74.4396C143.781 74.4533 143.864 74.563 143.843 74.6795L142.71 82.9522C142.689 83.1304 142.516 83.2606 142.33 83.2332Z" fill="#F3B3B6"/>
<path d="M140.021 79.4567L136.608 78.2915C135.115 77.7775 134.32 76.16 134.832 74.6795L139.434 61.4583L153.988 66.4411L151.362 73.9873C149.765 78.5931 144.679 81.0468 140.021 79.4567Z" fill="#F3B3B6"/>
<path d="M156.538 65.9956C156.448 64.755 155.529 63.6995 154.292 63.5007C153.221 63.3294 151.97 62.8565 151.161 61.6707C150 59.9778 147.927 59.0388 145.965 58.3809C144.009 57.7297 141.632 57.8942 140.153 59.3267C139.476 58.1615 137.72 58.0245 136.559 58.7098C135.398 59.3952 134.7 60.6495 134.134 61.8627C132.993 64.2889 132.102 66.9277 132.337 69.5939C132.399 70.2656 132.53 70.9304 132.655 71.5884C132.986 73.2607 132.952 74.9605 133.373 76.626C133.429 76.8454 133.498 77.0715 133.657 77.2223C133.892 77.4416 134.279 77.4348 134.569 77.284C134.859 77.1332 135.067 76.8659 135.239 76.5918C136.089 75.2895 135.467 74.4191 135.716 73.0003C135.847 72.2395 136.317 71.4856 137.057 71.232C138.045 70.8893 139.075 71.5198 140.07 71.8351C142.413 72.5753 147.913 70.7659 146.856 67.5103C150.069 68.8674 154.727 69.9571 156.538 65.9956Z" fill="#3C5186"/>
<path d="M132.302 93.706C132.268 91.6978 131.604 90.5669 132.206 90.2928C133.463 89.717 135.861 100.108 138.985 106.742C140.498 109.97 144.119 111.992 144.119 111.992L143.249 115.152C140.934 113.706 139.047 111.663 137.803 109.251L132.302 93.706Z" fill="#A6CBED"/>
<path d="M178.182 96.4065C178.251 96.0501 178.631 95.9473 179.032 96.1871L245.67 136.098C246.071 136.337 246.341 136.824 246.272 137.187L240.17 169.449C240.101 169.805 239.72 169.908 239.32 169.668L172.681 129.758C172.28 129.518 172.011 129.031 172.08 128.668L178.182 96.4065Z" fill="#4A66A4"/>
<path fill-rule="evenodd" clip-rule="evenodd" d="M225.782 155.912C225.112 155.919 224.434 155.878 223.743 155.782C223.432 155.741 223.121 155.693 222.824 155.631C221.857 155.439 220.875 155.145 219.908 154.761C218.954 154.384 218.007 153.911 217.088 153.363C216.204 152.828 215.333 152.218 214.497 151.54C213.709 150.902 212.942 150.189 212.23 149.435C211.539 148.709 210.89 147.927 210.295 147.112C209.715 146.317 209.183 145.481 208.713 144.631C208.243 143.781 207.835 142.917 207.503 142.054C207.165 141.176 206.902 140.292 206.709 139.429C206.508 138.538 206.398 137.66 206.37 136.817C206.342 135.94 206.405 135.083 206.557 134.274C206.716 133.445 206.971 132.657 207.317 131.944C207.669 131.218 208.118 130.546 208.657 129.963C209.217 129.36 209.867 128.832 210.606 128.401C211.359 127.955 212.203 127.612 213.101 127.379C213.612 127.242 214.144 127.146 214.69 127.085C215.402 127.002 216.142 127.03 216.86 127.126L217.192 127.174L216.363 131.375C216.017 131.382 215.685 131.423 215.375 131.505C215.077 131.581 214.787 131.697 214.525 131.855C214.227 132.033 213.951 132.253 213.709 132.52C213.433 132.821 213.191 133.178 212.997 133.582C212.783 134.035 212.617 134.542 212.514 135.09C212.403 135.673 212.362 136.29 212.382 136.941C212.403 137.585 212.493 138.27 212.645 138.963C212.797 139.655 213.011 140.368 213.288 141.074C213.557 141.78 213.889 142.492 214.276 143.191C214.663 143.891 215.098 144.576 215.575 145.227C216.052 145.885 216.577 146.516 217.13 147.098C217.69 147.688 218.277 148.236 218.885 148.729C219.493 149.223 220.129 149.668 220.765 150.052C221.373 150.415 221.981 150.717 222.582 150.957C223.114 151.169 223.64 151.334 224.137 151.43C224.573 151.519 224.994 151.56 225.381 151.553C225.727 151.553 226.058 151.512 226.362 151.43C226.673 151.348 226.957 151.231 227.226 151.073C227.523 150.895 227.8 150.676 228.042 150.409C228.325 150.107 228.56 149.744 228.76 149.339C228.981 148.894 229.147 148.387 229.251 147.832C229.362 147.249 229.41 146.632 229.389 145.981L235.394 146.097C235.422 146.982 235.36 147.838 235.201 148.647C235.042 149.476 234.779 150.265 234.434 150.977C234.081 151.704 233.625 152.369 233.086 152.958C232.527 153.561 231.87 154.089 231.138 154.521C230.377 154.96 229.541 155.309 228.636 155.542C227.738 155.775 226.777 155.899 225.782 155.912ZM226.196 137.688C226.673 138.346 227.116 139.031 227.496 139.723C227.876 140.422 228.207 141.128 228.491 141.848L233.757 140.95L234.268 140.861C233.929 139.991 233.529 139.127 233.059 138.277C232.589 137.434 232.057 136.598 231.469 135.796C230.875 134.987 230.225 134.206 229.534 133.473C228.823 132.719 228.055 132.013 227.261 131.368C226.431 130.69 225.561 130.08 224.662 129.545C223.743 128.99 222.79 128.524 221.843 128.147L219.175 131.958C219.77 132.191 220.385 132.499 221 132.863C221.642 133.246 222.278 133.692 222.886 134.185C223.494 134.679 224.082 135.227 224.642 135.817C225.194 136.399 225.72 137.03 226.196 137.688Z" fill="url(#paint9_linear_2_5005)"/>
<path d="M245.671 136.091L179.032 96.1803C178.631 95.9404 178.251 96.0432 178.182 96.3996L178.126 96.708L244.447 136.427C244.848 136.666 245.118 137.153 245.049 137.516L239.002 169.469L239.32 169.661C239.721 169.901 240.101 169.798 240.17 169.442L246.272 137.181C246.334 136.817 246.064 136.331 245.671 136.091Z" fill="url(#paint10_linear_2_5005)"/>
<path d="M196.218 114.912L195.797 117.146L180.939 108.25L181.381 105.927L196.218 114.912Z" fill="#EDF3FA"/>
<path d="M204.753 127.75L204.324 129.991L179.605 115.316L180.048 112.993L204.753 127.75Z" fill="#EDF3FA"/>
<path d="M203.633 133.644L203.212 135.878L178.493 121.211L178.935 118.881L203.633 133.644Z" fill="#EDF3FA"/>
<path d="M202.597 139.141L202.175 141.375L177.449 126.708L177.891 124.377L202.597 139.141Z" fill="#EDF3FA"/>
<path d="M175.694 100.512C176.122 100.101 176.813 100.108 177.228 100.539L180.573 103.966C180.987 104.391 180.98 105.077 180.545 105.488C180.117 105.899 179.426 105.892 179.011 105.461L175.666 102.034C175.252 101.609 175.265 100.93 175.694 100.512Z" fill="#F3B3B6"/>
<path d="M173.261 113.048C173.69 112.637 174.381 112.643 174.795 113.075L178.14 116.502C178.555 116.927 178.548 117.613 178.113 118.024C177.684 118.435 176.993 118.428 176.578 117.996L173.234 114.569C172.819 114.144 172.826 113.459 173.261 113.048Z" fill="#F3B3B6"/>
<path d="M171.831 115.063C172.259 114.652 172.95 114.658 173.365 115.09L176.71 118.517C177.124 118.942 177.117 119.628 176.682 120.039C176.254 120.45 175.563 120.443 175.148 120.011L171.803 116.584C171.389 116.16 171.396 115.474 171.831 115.063Z" fill="#F3B3B6"/>
<path d="M170.497 117.051C170.926 116.639 171.617 116.646 172.031 117.078L175.376 120.505C175.791 120.93 175.784 121.615 175.348 122.026C174.92 122.438 174.229 122.431 173.814 121.999L170.47 118.572C170.055 118.147 170.069 117.469 170.497 117.051Z" fill="#F3B3B6"/>
<path d="M168.41 118.627C168.839 118.216 169.53 118.223 169.944 118.654L173.289 122.081C173.704 122.506 173.697 123.192 173.261 123.603C172.833 124.014 172.142 124.007 171.727 123.575L168.382 120.149C167.961 119.724 167.975 119.045 168.41 118.627Z" fill="#F3B3B6"/>
<path d="M373.297 236.171C373.083 236.171 372.869 236.171 372.656 236.158C366.77 235.966 361.408 233.146 357.948 228.415L356.238 226.074C355.246 224.718 355.549 222.822 356.914 221.843C358.278 220.857 360.188 221.158 361.173 222.514L362.882 224.855C365.233 228.066 368.865 229.976 372.856 230.106C376.846 230.236 380.602 228.559 383.16 225.512L390.017 217.332C391.093 216.044 393.022 215.873 394.311 216.941C395.607 218.009 395.779 219.926 394.704 221.206L387.846 229.387C384.221 233.727 378.941 236.171 373.297 236.171Z" fill="#F09EA3"/>
<path d="M361.911 222.61C361.911 224.595 360.291 226.211 358.285 226.211C356.286 226.211 354.66 224.602 354.66 222.61C354.66 220.624 356.28 219.009 358.285 219.009C360.291 219.009 361.911 220.624 361.911 222.61Z" fill="#F09EA3"/>
<path opacity="0.3" d="M359.326 201.209L292.864 161.346C292.464 161.106 292.085 161.209 292.016 161.565L287.454 184.656C287.385 185.012 287.653 185.505 288.053 185.745L354.198 225.417L354.515 225.608C354.915 225.848 355.294 225.745 355.363 225.389L359.926 202.298C359.988 201.935 359.719 201.449 359.326 201.209Z" fill="#4A66A4"/>
<path d="M294.187 166.953C294.256 166.597 294.635 166.494 295.035 166.734L361.497 206.597C361.897 206.837 362.166 207.323 362.097 207.686L357.534 230.777C357.465 231.14 357.086 231.236 356.686 230.996L290.224 191.132C289.824 190.893 289.556 190.407 289.625 190.044L294.187 166.953Z" fill="#4A66A4"/>
<path d="M361.49 206.59L295.028 166.727C294.628 166.487 294.249 166.59 294.18 166.946L294.125 167.254L360.27 206.926C360.67 207.165 360.939 207.651 360.87 208.014L356.369 230.797L356.686 230.989C357.086 231.229 357.465 231.126 357.534 230.77L362.097 207.679C362.159 207.323 361.89 206.83 361.49 206.59Z" fill="url(#paint11_linear_2_5005)"/>
<path d="M355.88 210.732L355.452 212.971L297.096 178.324L297.537 176.003L355.88 210.732Z" fill="#EDF3FA"/>
<path d="M354.763 216.613L354.343 218.851L295.986 184.211L296.42 181.884L354.763 216.613Z" fill="#EDF3FA"/>
<path d="M353.73 222.103L353.309 224.342L294.945 189.702L295.387 187.374L353.73 222.103Z" fill="#EDF3FA"/>
<path d="M367.714 334.088L375.916 336.272L380.582 339.195C381.126 339.537 381.457 340.133 381.457 340.776V349.779L378.955 351.216C378.011 351.757 376.846 351.757 375.902 351.216L361.697 343.07C360.601 342.44 359.926 341.283 359.926 340.023C359.926 335.977 363.785 333.041 367.714 334.088Z" fill="#4A66A4"/>
<path d="M375.902 348.868L361.697 340.722C360.904 340.27 360.332 339.53 360.077 338.682C359.981 339.113 359.926 339.558 359.926 340.023C359.926 341.276 360.601 342.44 361.697 343.07L375.902 351.216C376.846 351.757 378.011 351.757 378.955 351.216L381.457 349.779V347.431L378.955 348.868C378.011 349.409 376.846 349.409 375.902 348.868Z" fill="#3C5186"/>
<path d="M380.582 339.188L375.916 336.265L372.821 335.443V341.03C372.821 342.878 374.668 344.377 376.95 344.377C379.231 344.377 381.078 342.878 381.078 341.03V339.667C380.94 339.483 380.782 339.311 380.582 339.188Z" fill="#3C5186"/>
<path d="M379.762 322.69L387.963 324.873L392.629 327.797C393.174 328.139 393.505 328.734 393.505 329.378V338.38L391.003 339.818C390.059 340.359 388.894 340.359 387.95 339.818L373.745 331.671C372.649 331.042 371.973 329.885 371.973 328.625C371.973 324.586 375.833 321.649 379.762 322.69Z" fill="#4A66A4"/>
<path d="M387.95 337.47L373.745 329.323C372.952 328.871 372.38 328.132 372.125 327.283C372.029 327.714 371.973 328.159 371.973 328.625C371.973 329.878 372.649 331.042 373.745 331.671L387.95 339.818C388.894 340.359 390.059 340.359 391.003 339.818L393.505 338.38V336.032L391.003 337.47C390.059 338.011 388.894 338.011 387.95 337.47Z" fill="#3C5186"/>
<path d="M392.629 327.797L387.963 324.873L384.869 324.052V329.638C384.869 331.487 386.716 332.993 388.997 332.993C391.279 332.993 393.126 331.493 393.126 329.638V328.276C392.988 328.091 392.829 327.92 392.629 327.797Z" fill="#3C5186"/>
<path d="M377.046 343.214C375.364 343.214 373.993 341.858 373.993 340.181V302.768C373.993 301.098 375.357 299.735 377.046 299.735C378.728 299.735 383.787 292.581 383.787 294.252L380.099 340.181C380.099 341.858 378.728 343.214 377.046 343.214Z" fill="#F3B3B6"/>
<path d="M388.935 331.733C387.254 331.733 385.882 330.378 385.882 328.7L385.089 291.65C385.089 289.98 387.247 291.787 388.928 291.787C390.61 291.787 393.505 287.372 393.505 289.042L391.982 328.7C391.982 330.371 390.617 331.733 388.935 331.733Z" fill="#F3B3B6"/>
<path d="M376.736 215.969L383.552 211.649C388.48 208.528 394.897 212.293 394.525 218.085L392.498 249.329L392.368 258.455L375.585 264.767L374.654 259.564L373.676 237.643L370.174 233.132L373.021 223.055C372.897 220.2 374.31 217.503 376.736 215.969Z" fill="url(#paint12_linear_2_5005)"/>
<path d="M374.654 261.453C373.193 262.076 372.097 271.777 371.973 273.098C371.401 279.348 371.939 288.097 371.677 294.368C371.546 297.497 371.332 306.369 371.332 306.369C386.771 309.895 396.034 299.468 397.909 294.567C398.116 290.309 398.15 269.572 395.89 263.897C395.187 262.138 394.587 260.344 394.132 258.503L392.926 253.622C392.926 253.628 374.668 261.446 374.654 261.453Z" fill="url(#paint13_linear_2_5005)"/>
<path d="M374.654 256.908V261.453C379.403 261.946 390.941 257.729 392.926 253.628L392.492 249.329C389.569 254.915 376.984 257.948 374.654 256.908Z" fill="#4A66A4"/>
<path d="M363.282 236.171C357.637 236.171 352.358 233.721 348.726 229.387L341.868 221.206C340.793 219.919 340.965 218.009 342.261 216.941C343.557 215.873 345.48 216.044 346.555 217.332L353.413 225.512C355.97 228.559 359.719 230.222 363.716 230.106C367.707 229.976 371.346 228.059 373.69 224.855L375.399 222.514C376.391 221.158 378.3 220.864 379.658 221.843C381.023 222.829 381.319 224.725 380.334 226.074L378.624 228.415C375.165 233.146 369.802 235.966 363.916 236.158C363.703 236.171 363.489 236.171 363.282 236.171Z" fill="#F3B3B6"/>
<path d="M384.124 220.782C382.443 220.782 381.071 219.426 381.071 217.749V207.583C381.071 205.913 382.436 204.55 384.124 204.55C385.806 204.55 387.178 205.906 387.178 207.583V217.749C387.178 219.426 385.813 220.782 384.124 220.782Z" fill="#FCC00E"/>
<path d="M375.295 214.668H385.227V195.705H371.098V210.492C371.091 212.8 372.973 214.668 375.295 214.668Z" fill="#F3B3B6"/>
<path d="M401.7 228.75C401.121 225.704 399.239 223.055 398.26 220.118C397.695 218.413 397.861 216.667 397.399 215.031C396.799 212.93 395.255 211.033 394.449 208.986C393.236 205.899 392.244 202.695 391.134 199.56C389.997 196.356 387.895 193.925 384.524 193.056C381.064 192.166 376.005 191.646 372.511 192.645C368.19 193.884 369.623 198.129 371.312 201.504C373.338 205.55 377.039 208.726 378.349 213.06C379.7 217.523 378.232 222.281 377.487 226.882C376.743 231.489 377.067 236.938 380.795 239.772C382.849 241.333 385.572 241.758 388.156 241.689C391.472 241.593 394.828 240.717 397.482 238.739C400.128 236.76 401.975 233.59 401.879 230.298C401.858 229.77 401.796 229.25 401.7 228.75Z" fill="#3C5186"/>
<path d="M347.258 217.749C347.258 219.734 345.638 221.35 343.632 221.35C341.627 221.35 340.007 219.741 340.007 217.749C340.007 215.764 341.627 214.148 343.632 214.148C345.638 214.148 347.258 215.764 347.258 217.749Z" fill="#F3B3B6"/>
<path d="M306.509 332.491H304.464C303.622 331.567 302.53 330.705 301.174 329.932C294.05 325.888 282.398 325.888 275.274 329.932C273.918 330.705 272.819 331.567 271.984 332.491H269.939V337.246C269.925 339.921 271.699 342.604 275.281 344.636C282.405 348.679 294.057 348.679 301.181 344.636C304.756 342.604 306.537 339.921 306.523 337.246V332.491H306.509Z" fill="url(#paint14_linear_2_5005)"/>
<path d="M275.274 325.136C282.398 321.092 294.05 321.092 301.174 325.136C308.297 329.179 308.297 335.796 301.174 339.839C294.05 343.883 282.398 343.883 275.274 339.839C268.151 335.802 268.151 329.179 275.274 325.136Z" fill="white"/>
<path d="M306.509 332.587C306.509 332.525 306.509 332.457 306.509 332.395V328.454H305.09C304.2 327.243 302.899 326.114 301.174 325.136C296.144 322.276 299.518 333.189 301.174 339.839V344.636C304.659 342.658 306.44 340.058 306.509 337.445V332.587Z" fill="#FFD986"/>
<path d="M301.174 317.069C294.05 313.025 282.398 313.025 275.275 317.069L288.221 325.765L301.174 317.069Z" fill="url(#paint15_linear_2_5005)"/>
<path d="M275.275 317.069V325.136L288.221 333.839V325.765L275.275 317.069Z" fill="url(#paint16_linear_2_5005)"/>
<path d="M288.221 325.765L301.174 317.069V325.136L288.221 333.839V325.765Z" fill="#3C5186"/>
<path d="M301.174 321.106C308.297 325.149 308.297 331.766 301.174 335.809L288.228 329.802L301.174 321.106Z" fill="url(#paint17_linear_2_5005)"/>
<path d="M288.221 329.802V333.839L301.174 339.846V335.809L288.221 329.802Z" fill="#FECC55"/>
<path d="M102.061 228.639H100.474C99.8262 227.949 98.971 227.298 97.9228 226.72C92.3986 223.677 83.3572 223.677 77.8262 226.72C76.771 227.298 75.9228 227.949 75.2676 228.639H73.6814V232.214C73.6676 234.225 75.0469 236.242 77.8262 237.767C83.3503 240.809 92.3917 240.809 97.9228 237.767C100.702 236.242 102.081 234.225 102.068 232.214V228.639H102.061Z" fill="url(#paint18_linear_2_5005)"/>
<path d="M77.8193 223.112C83.3434 220.07 92.3848 220.07 97.9158 223.112C103.44 226.155 103.44 231.129 97.9158 234.165C92.3917 237.208 83.3503 237.208 77.8193 234.165C72.2951 231.129 72.2951 226.155 77.8193 223.112Z" fill="#4A66A4"/>
<path d="M93.364 230.847C93.564 230.584 93.4192 230.288 93.0813 230.15L92.8537 230.052C93.2675 230.223 93.8813 230.098 94.1295 229.769C94.3295 229.506 94.1847 229.211 93.8468 229.073L92.1916 228.383L90.7227 227.765C90.7227 227.765 90.9916 227.62 91.3364 227.417C91.4054 227.377 91.4813 227.331 91.5571 227.285C91.5778 227.272 91.6054 227.259 91.6261 227.239C91.9709 227.022 92.3295 226.779 92.5502 226.582C92.6054 226.529 92.7158 226.418 92.833 226.299C92.8606 226.267 92.8882 226.24 92.9227 226.207C93.0123 226.115 93.0951 226.023 93.1571 225.945C93.2813 225.8 93.2951 225.642 93.2123 225.511C93.164 225.432 93.0813 225.366 92.964 225.314C92.6675 225.189 92.2468 225.235 91.9847 225.425C91.5227 225.754 90.8054 226.227 90.3571 226.345C89.9571 226.451 88.4744 226.825 88.4744 226.825L88.4192 226.799L87.8192 226.549L88.2951 226.102C88.3433 226.056 88.3296 226.004 88.2675 225.977L86.0813 225.064L83.1364 227.811L81.6813 229.165L83.8537 230.078L83.8675 230.085C83.9296 230.111 84.0192 230.098 84.0606 230.052L84.0675 230.045L84.4744 229.664L84.8468 229.822C84.8882 229.841 84.9227 229.855 84.9502 229.881C84.9778 229.901 85.0054 229.927 85.033 229.953C85.0744 229.999 85.102 230.052 85.1158 230.104L85.2675 230.88C85.2951 231.018 85.4123 231.143 85.5847 231.215L88.5296 232.45C88.8675 232.595 89.364 232.562 89.6744 232.352C90.0675 232.082 90.0192 231.681 89.6054 231.504L90.2813 231.787C90.6192 231.931 91.1158 231.898 91.4261 231.688C91.8192 231.419 91.7709 231.018 91.3571 230.84L92.0744 231.143C92.502 231.307 93.1158 231.182 93.364 230.847Z" fill="white"/>
<path d="M215.018 276.388H213.245C212.515 275.555 211.568 274.778 210.395 274.078C204.231 270.424 194.154 270.424 187.99 274.078C186.818 274.771 185.87 275.555 185.14 276.388H183.368V280.686C183.354 283.101 184.895 285.523 187.99 287.364C194.154 291.018 204.231 291.018 210.395 287.364C213.49 285.53 215.031 283.108 215.018 280.686V276.388Z" fill="url(#paint19_linear_2_5005)"/>
<path d="M187.997 269.752C194.161 266.098 204.238 266.098 210.402 269.752C216.565 273.406 216.565 279.377 210.402 283.031C204.238 286.685 194.161 286.685 187.997 283.031C181.833 279.377 181.833 273.399 187.997 269.752Z" fill="url(#paint20_linear_2_5005)"/>
<path d="M202.377 279.587C202.377 279.587 202.152 279.587 202.07 279.58L195.061 278.943L194.808 274.022C194.795 273.413 195.095 272.839 195.722 272.433C197.004 271.593 199.152 271.789 200.522 272.853C201.218 273.392 201.579 274.057 201.599 274.687C202.479 274.757 203.372 275.072 204.068 275.611C205.438 276.682 205.513 278.222 204.231 279.062C203.713 279.398 203.058 279.566 202.377 279.587Z" fill="white"/>
<path d="M36.3211 335.005H34.3156C33.4954 334.119 32.4203 333.285 31.0901 332.545C24.1156 328.652 12.7095 328.652 5.73488 332.545C4.40474 333.285 3.3365 334.119 2.50947 335.005H0.510824V339.585C0.49704 342.165 2.2338 344.745 5.73488 346.699C12.7095 350.592 24.1156 350.592 31.0901 346.699C34.5912 344.745 36.3349 342.159 36.3142 339.585V335.005H36.3211Z" fill="url(#paint21_linear_2_5005)"/>
<path d="M5.74181 327.925C12.7164 324.032 24.1225 324.032 31.0971 327.925C38.0717 331.819 38.0717 338.192 31.0971 342.085C24.1225 345.979 12.7164 345.979 5.74181 342.085C-1.23278 338.192 -1.23278 331.819 5.74181 327.925Z" fill="#3C5186"/>
<path d="M18.8983 339.285C17.582 339.852 15.4868 339.752 14.2187 339.059C12.9506 338.365 12.9851 337.345 14.3014 336.779C14.5496 336.672 14.839 336.592 15.1354 336.532L14.267 333.985C13.44 333.939 12.6267 333.745 12.0064 333.405C10.7383 332.712 10.7728 331.692 12.0891 331.125C13.4055 330.559 15.5006 330.659 16.7687 331.352C17.4097 331.699 17.7129 332.132 17.6923 332.552L22.6613 333.305C22.8267 333.152 23.0335 333.012 23.3091 332.892C24.6255 332.325 26.7206 332.425 27.9887 333.119C29.2568 333.812 29.2224 334.832 27.906 335.399C26.5897 335.965 24.4946 335.865 23.2264 335.172C22.62 334.839 22.3167 334.432 22.3029 334.039L17.265 333.272C17.1064 333.405 16.9273 333.525 16.6791 333.632C16.4104 333.745 16.1071 333.825 15.797 333.885L16.6585 336.412C17.5062 336.452 18.347 336.652 18.981 336.999C20.2491 337.699 20.2147 338.719 18.8983 339.285Z" fill="white"/>
<path fill-rule="evenodd" clip-rule="evenodd" d="M253.934 247.066C254.686 247.066 255.299 247.406 255.299 247.828L255.32 251.718C255.32 252.139 254.714 252.479 253.962 252.479H252.29L252.332 255.757V255.791V255.866L252.318 255.872C252.276 256.036 252.158 256.192 251.935 256.314L248.592 258.198C248.272 258.375 247.826 258.436 247.408 258.395L247.373 258.416V258.395C247.116 258.368 246.872 258.307 246.67 258.198L244.615 257.042C244.281 256.852 243.766 256.811 243.327 256.926C243.062 256.994 242.798 257.062 242.526 257.117C242.073 257.212 241.767 257.443 241.767 257.715L241.774 259.347C241.774 259.769 241.168 260.116 240.416 260.116L235.68 260.122C234.928 260.122 234.315 259.782 234.315 259.361L234.308 257.715C234.308 257.457 234.03 257.226 233.598 257.13C233.341 257.074 233.047 257.006 232.774 256.942L232.707 256.926C232.282 256.824 231.794 256.879 231.467 257.062L229.398 258.225C229.197 258.341 228.946 258.395 228.688 258.422V258.436L228.667 258.422C228.249 258.463 227.804 258.409 227.476 258.225L224.12 256.348C223.883 256.219 223.757 256.056 223.73 255.886C223.716 255.832 223.716 255.777 223.73 255.723L223.771 252.513H222.065C221.313 252.513 220.7 252.173 220.7 251.752L220.686 247.869C220.686 247.447 221.292 247.1 222.044 247.1L224.983 247.094C225.201 247.094 225.498 247.203 225.764 247.302C226.06 247.411 226.317 247.506 226.383 247.42C226.557 247.182 226.467 246.91 226.139 246.726L224.064 245.564C223.8 245.416 224.415 245.427 225.171 245.441C225.95 245.454 226.88 245.471 227.149 245.319L227.393 242.599C227.922 242.3 228.786 242.3 229.315 242.599L231.376 243.748C231.718 243.938 232.226 243.979 232.665 243.864C232.943 243.796 233.222 243.728 233.507 243.666C233.953 243.571 234.267 243.34 234.267 243.068V241.436C234.267 241.014 234.872 240.674 235.625 240.674H240.36C241.112 240.674 241.718 241.014 241.718 241.436V243.082C241.718 243.34 241.997 243.571 242.429 243.666C242.686 243.723 242.979 243.791 243.253 243.855L243.32 243.87C243.745 243.972 244.232 243.918 244.56 243.734L246.628 242.572C247.157 242.272 248.021 242.272 248.55 242.572L248.522 245.074C248.774 245.213 249.672 245.255 250.486 245.294C251.382 245.336 252.177 245.373 251.9 245.53L249.846 246.686C249.504 246.883 249.428 247.168 249.63 247.413C249.693 247.489 249.93 247.398 250.211 247.29C250.482 247.186 250.793 247.066 251.03 247.066H253.934ZM235.576 253.9C239.469 254.744 243.808 253.418 244.595 251.065C245.18 249.31 243.376 247.515 240.416 246.869C236.523 246.026 232.184 247.352 231.397 249.705C230.812 251.459 232.616 253.261 235.576 253.9Z" fill="#3C5186"/>
<path d="M252.318 243.401L252.304 241.314H249.24L248.557 240.933C248.028 240.634 247.164 240.634 246.635 240.933L245.953 241.314H241.725V239.79C241.725 239.369 241.119 239.029 240.367 239.029H235.632C234.879 239.029 234.274 239.369 234.274 239.79V241.314H229.977L229.322 240.946C228.793 240.647 227.929 240.647 227.4 240.946L226.759 241.307H223.674V243.347C223.667 243.551 223.792 243.755 224.071 243.911L226.146 245.074L249.867 245.047L251.921 243.891C252.165 243.755 252.29 243.578 252.311 243.401H252.318Z" fill="#3C5186"/>
<path fill-rule="evenodd" clip-rule="evenodd" d="M253.948 248.8H250.236C250.215 248.834 249.908 249.304 249.609 249.705C249.428 249.943 249.518 250.215 249.846 250.398L251.921 251.561C252.45 251.86 252.45 252.343 251.921 252.642L248.578 254.526C248.049 254.825 247.185 254.825 246.656 254.526L244.602 253.37C244.267 253.18 243.752 253.139 243.313 253.254C243.048 253.322 242.784 253.39 242.512 253.445C242.06 253.54 241.753 253.771 241.753 254.043L241.76 255.675C241.76 256.097 241.154 256.444 240.402 256.444L235.666 256.45C234.914 256.45 234.301 256.11 234.301 255.689L234.294 254.043C234.294 253.785 234.016 253.554 233.584 253.458C233.327 253.402 233.033 253.334 232.76 253.27L232.693 253.254C232.268 253.152 231.78 253.207 231.453 253.39L229.385 254.553C228.855 254.852 227.992 254.852 227.462 254.553L224.106 252.676C223.569 252.377 223.569 251.894 224.099 251.595L226.153 250.439C226.494 250.242 226.564 249.956 226.362 249.712C226.244 249.562 226.132 249.412 226.028 249.263C225.854 249.011 225.443 248.834 224.962 248.834L222.058 248.841C221.306 248.841 220.693 248.501 220.693 248.08L220.679 245.421C220.679 244.999 221.285 244.652 222.037 244.652L224.976 244.646C225.443 244.646 225.854 244.489 226.021 244.244C226.067 244.182 226.116 244.114 226.166 244.044C226.237 243.946 226.31 243.843 226.383 243.748C226.557 243.51 226.467 243.238 226.139 243.054L224.064 241.892C223.528 241.592 223.528 241.11 224.057 240.81L227.393 238.927C227.922 238.628 228.786 238.628 229.315 238.927L231.376 240.076C231.718 240.266 232.226 240.307 232.665 240.192C232.943 240.124 233.222 240.056 233.507 239.994C233.953 239.899 234.267 239.668 234.267 239.396V237.764C234.267 237.342 234.872 237.002 235.625 237.002H240.36C241.112 237.002 241.718 237.342 241.718 237.764V239.41C241.718 239.668 241.997 239.899 242.429 239.994C242.686 240.051 242.979 240.119 243.253 240.183L243.32 240.198C243.745 240.3 244.232 240.246 244.56 240.062L246.628 238.9C247.157 238.6 248.021 238.6 248.55 238.9L251.9 240.776C252.429 241.076 252.429 241.558 251.9 241.858L249.846 243.014C249.504 243.204 249.428 243.496 249.63 243.741C249.748 243.884 249.86 244.04 249.964 244.19C250.138 244.442 250.549 244.618 251.03 244.618H253.934C254.686 244.618 255.299 244.958 255.299 245.38L255.306 248.039C255.306 248.46 254.7 248.8 253.948 248.8ZM240.416 243.197C236.523 242.354 232.184 243.68 231.397 246.033C230.805 247.787 232.609 249.589 235.576 250.228C239.469 251.072 243.808 249.746 244.595 247.393C245.18 245.638 243.376 243.836 240.416 243.197Z" fill="url(#paint22_linear_2_5005)"/>
<path d="M162.434 361.403L160.751 360.915C158.014 360.124 155.058 360.633 152.745 362.304L150.987 360.998L149.201 365.136L140.567 364.401L142.448 372.108C142.571 372.603 142.941 372.994 143.427 373.139L146.971 374.184C149.927 375.057 153.122 374.273 155.345 372.142L163.207 364.614C164.281 363.596 163.843 361.809 162.434 361.403Z" fill="#3C5186"/>
<path d="M162.434 361.403L160.751 360.915C158.014 360.124 155.058 360.633 152.745 362.304L150.987 360.998L149.201 365.136L140.567 364.401L141.538 368.402C141.969 370.176 143.31 371.585 145.055 372.101L146.567 372.548C149.523 373.421 152.718 372.644 154.949 370.506L162.81 362.978C163.098 362.703 163.269 362.366 163.344 362.015C163.125 361.733 162.824 361.513 162.434 361.403Z" fill="#5D7DBE"/>
<path d="M150.303 364.304C152.109 362.572 151.63 360.585 149.229 359.891C146.827 359.196 143.392 360.042 141.6 361.768C139.8 363.5 140.286 365.487 142.674 366.181C145.055 366.883 148.49 366.037 150.303 364.304Z" fill="#FAF8F9"/>
<path d="M145.561 364.573C143.987 364.573 142.715 363.294 142.715 361.713V350.678C142.715 349.097 143.987 347.818 145.561 347.818C147.135 347.818 148.407 349.097 148.407 350.678V361.713C148.414 363.294 147.135 364.573 145.561 364.573Z" fill="#F09EA3"/>
<path d="M145.568 362.771C145.5 362.771 145.431 362.771 145.363 362.764C142.893 362.654 140.984 360.551 141.093 358.069L142.304 331.071L141.086 287.861C141.018 285.379 142.961 283.31 145.438 283.241C147.894 283.152 152.759 285.125 152.834 287.614L151.268 331.146L151.261 331.311L150.043 358.474C149.926 360.888 147.949 362.771 145.568 362.771Z" fill="url(#paint23_linear_2_5005)"/>
<path d="M174.387 372.41L172.868 371.537C170.398 370.114 167.408 369.901 164.76 370.966L163.364 369.275L160.648 372.871L152.438 370.093V378.027C152.438 378.536 152.704 379.01 153.142 379.264L156.338 381.128C158.999 382.681 162.283 382.688 164.959 381.148L174.38 375.717C175.66 374.981 175.66 373.139 174.387 372.41Z" fill="#3C5186"/>
<path d="M174.387 372.41L172.868 371.537C170.398 370.114 167.408 369.901 164.76 370.966L163.364 369.275L160.648 372.871L152.438 370.093V374.211C152.438 376.04 153.402 377.724 154.976 378.639L156.344 379.436C159.006 380.99 162.29 380.997 164.965 379.457L174.387 374.026C174.736 373.826 174.975 373.538 175.133 373.221C174.982 372.891 174.736 372.609 174.387 372.41Z" fill="#5D7DBE"/>
<path d="M161.914 372.328C164.083 371.076 164.083 369.034 161.914 367.783C159.745 366.532 156.207 366.532 154.059 367.783C151.904 369.034 151.904 371.076 154.059 372.328C156.207 373.579 159.745 373.579 161.914 372.328Z" fill="#FAF8F9"/>
<path d="M157.98 371.867C156.406 371.867 155.133 370.588 155.133 369.007V357.973C155.133 356.391 156.406 355.113 157.98 355.113C159.553 355.113 160.826 356.398 160.826 357.973V369.007C160.826 370.581 159.553 371.867 157.98 371.867Z" fill="#F09EA3"/>
<path d="M145.568 295.266C144.446 295.266 143.351 294.681 142.742 293.629L136.851 283.386C130.728 272.729 133.458 259.076 143.194 251.623L144.802 250.393C146.232 249.299 148.278 249.574 149.365 251.011C150.453 252.448 150.18 254.504 148.75 255.597L147.142 256.828C139.999 262.293 138.001 272.303 142.489 280.113L148.38 290.357C149.276 291.924 148.743 293.925 147.19 294.826C146.683 295.121 146.122 295.266 145.568 295.266Z" fill="#5D7DBE"/>
<path d="M141.408 299.088L141.093 287.868L158.992 280.959L158.842 290.866C160.785 291.251 162.311 292.894 162.448 294.977L164.911 334.288L162.441 364.531C162.249 366.883 160.292 368.663 157.987 368.663C157.528 368.663 157.063 368.594 156.557 368.429C154.572 367.763 153.361 365.741 153.532 363.651L155.934 334.206L151.808 307.62L143.755 303.014C142.339 302.203 141.449 300.718 141.408 299.088Z" fill="url(#paint24_linear_2_5005)"/>
<path d="M162.448 294.977C162.29 292.495 160.162 290.618 157.699 290.769C157.596 290.776 157.494 290.79 157.398 290.804C159.464 291.086 161.127 292.798 161.257 294.977L163.72 334.288L161.25 364.531C161.072 366.676 159.423 368.326 157.391 368.608C157.466 368.622 157.542 368.643 157.617 368.649C157.74 368.663 157.863 368.663 157.986 368.663C160.292 368.663 162.249 366.883 162.441 364.531L164.911 334.288L162.448 294.977Z" fill="url(#paint25_linear_2_5005)"/>
<path opacity="0.3" d="M139.506 287.992L139.951 283.695C140.348 280.739 140.525 277.762 140.491 274.785C140.868 276.621 141.518 278.415 142.489 280.113L148.38 290.357C149.277 291.924 148.743 293.925 147.19 294.826C146.677 295.121 146.115 295.266 145.561 295.266C144.439 295.266 143.344 294.681 142.735 293.629L139.506 287.992Z" fill="#231F20"/>
<path d="M140.224 234.47L154.278 242.624C160.511 246.24 164.35 252.923 164.35 260.155V300.36C158.643 304.375 143.29 298.779 140.224 292.495L141.141 283.695C141.613 280.203 141.784 276.676 141.654 273.156L140.224 234.47Z" fill="#5D7DBE"/>
<path d="M158.157 243.332H145.684V224.123H162.242V239.228C162.242 241.496 160.415 243.332 158.157 243.332Z" fill="#F3B3B6"/>
<path d="M153.827 246.529H148.613C148.141 246.529 147.758 246.144 147.758 245.669V232.614H154.682V245.669C154.675 246.144 154.299 246.529 153.827 246.529Z" fill="#F3B3B6"/>
<path opacity="0.3" d="M164.35 268.955C163.782 268.721 162.708 268.096 162.516 266.576L161.202 256.367C160.97 254.573 159.341 253.314 157.555 253.541C155.77 253.775 155.688 255.652 155.913 257.446L156.05 267.415C156.536 271.169 159.074 274.194 162.68 275.301C163.234 275.473 163.789 275.576 164.343 275.644V268.955H164.35Z" fill="#231F20"/>
<path d="M165.506 273.926C164.569 273.926 163.624 273.788 162.687 273.499C159.081 272.393 156.543 269.374 156.057 265.614L154.743 255.404C154.511 253.61 155.77 251.974 157.555 251.74C159.341 251.513 160.97 252.771 161.202 254.566L162.516 264.775C162.742 266.542 164.158 267.106 164.589 267.243C165.02 267.374 166.505 267.697 167.682 266.363L177.103 255.597C178.294 254.243 180.346 254.105 181.701 255.301C183.049 256.491 183.186 258.56 181.995 259.914L172.574 270.681C170.726 272.791 168.167 273.926 165.506 273.926Z" fill="#5D7DBE"/>
<path d="M175.55 257.371L177.103 255.597C178.294 254.243 180.346 254.105 181.701 255.301C183.049 256.491 183.186 258.56 181.995 259.914L180.107 262.066L175.55 257.371Z" fill="#F3B3B6"/>
<path d="M185.047 256.766C185.047 258.952 183.282 260.726 181.106 260.726C178.93 260.726 177.165 258.952 177.165 256.766C177.165 254.579 178.93 252.806 181.106 252.806C183.282 252.806 185.047 254.579 185.047 256.766Z" fill="#F3B3B6"/>
<path d="M184.486 249.925L179.532 255.157C179.204 255.508 178.656 255.521 178.307 255.184L178.301 255.178C177.952 254.848 177.938 254.298 178.273 253.947L183.227 248.715C183.555 248.364 184.103 248.351 184.452 248.688L184.459 248.694C184.801 249.024 184.814 249.581 184.486 249.925Z" fill="#F3B3B6"/>
<path d="M163.426 220.761C160.566 217.358 153.874 218.369 150.166 219.565C145.602 221.036 139.882 222.748 139.061 228.296C138.856 229.699 139 231.129 139.006 232.552C139.02 235.824 138.268 239.104 136.81 242.033C134.737 246.219 133.738 248.894 135.934 253.239C137.234 255.81 138.069 259.818 140.724 261.399C143.461 263.029 149.249 264.039 151.87 262.046C155.516 259.268 157.357 252.538 157.022 248.213C156.659 243.545 154.34 238.836 155.749 234.381C156.632 231.589 160.368 228.454 162.482 226.488C164.37 224.735 165.321 223.016 163.426 220.761Z" fill="url(#paint26_linear_2_5005)"/>
<path d="M163.426 220.761C161.75 218.768 158.753 218.307 155.818 218.493C158.021 218.63 160.067 219.235 161.346 220.761C163.241 223.016 162.29 224.742 160.415 226.481C158.301 228.441 154.565 231.576 153.683 234.374C152.273 238.836 154.593 243.545 154.955 248.206C155.291 252.531 153.45 259.261 149.803 262.039C148.969 262.671 147.799 262.981 146.519 263.084C148.579 263.263 150.611 263.015 151.883 262.039C155.53 259.261 157.371 252.531 157.035 248.206C156.673 243.538 154.353 238.829 155.763 234.374C156.645 231.583 160.381 228.448 162.495 226.481C164.37 224.735 165.321 223.016 163.426 220.761Z" fill="#FECC55"/>
<defs>
<linearGradient id="paint0_linear_2_5005" x1="225.299" y1="424.695" x2="261.459" y2="424.695" gradientUnits="userSpaceOnUse">
<stop stop-color="#FCC00E"/>
<stop offset="0.8501" stop-color="#F49719"/>
</linearGradient>
<linearGradient id="paint1_linear_2_5005" x1="225.299" y1="420.095" x2="261.46" y2="420.095" gradientUnits="userSpaceOnUse">
<stop offset="0.1499" stop-color="#F49719"/>
<stop offset="1" stop-color="#FCC00E"/>
</linearGradient>
<linearGradient id="paint2_linear_2_5005" x1="212.489" y1="255.453" x2="447.867" y2="255.453" gradientUnits="userSpaceOnUse">
<stop stop-color="#F5FAFE"/>
<stop offset="0.2091" stop-color="#E5F1FA"/>
<stop offset="0.822" stop-color="#B6D3F0"/>
<stop offset="0.9962" stop-color="#A6CBED"/>
</linearGradient>
<linearGradient id="paint3_linear_2_5005" x1="385.541" y1="163.636" x2="423.9" y2="163.636" gradientUnits="userSpaceOnUse">
<stop stop-color="#3C5186"/>
<stop offset="0.3931" stop-color="#4C67A1"/>
<stop offset="0.7545" stop-color="#5877B6"/>
<stop offset="1" stop-color="#5D7DBE"/>
</linearGradient>
<linearGradient id="paint4_linear_2_5005" x1="207.833" y1="121.564" x2="418.542" y2="121.564" gradientUnits="userSpaceOnUse">
<stop stop-color="#3C5186"/>
<stop offset="0.3931" stop-color="#4C67A1"/>
<stop offset="0.7545" stop-color="#5877B6"/>
<stop offset="1" stop-color="#5D7DBE"/>
</linearGradient>
<linearGradient id="paint5_linear_2_5005" x1="207.364" y1="290.373" x2="414.022" y2="290.373" gradientUnits="userSpaceOnUse">
<stop stop-color="#F5FAFE"/>
<stop offset="0.2091" stop-color="#E5F1FA"/>
<stop offset="0.822" stop-color="#B6D3F0"/>
<stop offset="0.9962" stop-color="#A6CBED"/>
</linearGradient>
<linearGradient id="paint6_linear_2_5005" x1="198.801" y1="165.12" x2="414.022" y2="165.12" gradientUnits="userSpaceOnUse">
<stop stop-color="#465D94"/>
<stop offset="1" stop-color="#5D7DBE"/>
</linearGradient>
<linearGradient id="paint7_linear_2_5005" x1="132.251" y1="78.6135" x2="68.503" y2="107.355" gradientUnits="userSpaceOnUse">
<stop stop-color="#3C5186"/>
<stop offset="0.1045" stop-color="#3E548A"/>
<stop offset="0.6425" stop-color="#47619D"/>
<stop offset="1" stop-color="#4A66A4"/>
</linearGradient>
<linearGradient id="paint8_linear_2_5005" x1="169.014" y1="129.197" x2="110.101" y2="95.5652" gradientUnits="userSpaceOnUse">
<stop stop-color="#3C5186"/>
<stop offset="1" stop-color="#4A66A4"/>
</linearGradient>
<linearGradient id="paint9_linear_2_5005" x1="247.107" y1="145.996" x2="225.287" y2="117.726" gradientUnits="userSpaceOnUse">
<stop offset="0.1499" stop-color="#F49719"/>
<stop offset="1" stop-color="#FCC00E"/>
</linearGradient>
<linearGradient id="paint10_linear_2_5005" x1="250.75" y1="97.9399" x2="176.673" y2="89.3769" gradientUnits="userSpaceOnUse">
<stop offset="0.00380205" stop-color="#3C5186"/>
<stop offset="1" stop-color="#5D7DBE"/>
</linearGradient>
<linearGradient id="paint11_linear_2_5005" x1="368.072" y1="168.889" x2="294.521" y2="157.824" gradientUnits="userSpaceOnUse">
<stop offset="0.00380205" stop-color="#3C5186"/>
<stop offset="1" stop-color="#5D7DBE"/>
</linearGradient>
<linearGradient id="paint12_linear_2_5005" x1="370.178" y1="264.758" x2="394.538" y2="264.758" gradientUnits="userSpaceOnUse">
<stop stop-color="#A9D7F5"/>
<stop offset="1" stop-color="white"/>
</linearGradient>
<linearGradient id="paint13_linear_2_5005" x1="371.33" y1="307.092" x2="398" y2="307.092" gradientUnits="userSpaceOnUse">
<stop stop-color="#A9D7F5"/>
<stop offset="1" stop-color="white"/>
</linearGradient>
<linearGradient id="paint14_linear_2_5005" x1="269.932" y1="347.671" x2="306.512" y2="347.671" gradientUnits="userSpaceOnUse">
<stop offset="0.00380205" stop-color="#A6CBED"/>
<stop offset="0.4908" stop-color="#D5E5F7"/>
<stop offset="1" stop-color="white"/>
</linearGradient>
<linearGradient id="paint15_linear_2_5005" x1="280.242" y1="309.682" x2="278.263" y2="321.881" gradientUnits="userSpaceOnUse">
<stop stop-color="#5D7DBE"/>
<stop offset="1" stop-color="#3C5186"/>
</linearGradient>
<linearGradient id="paint16_linear_2_5005" x1="281.624" y1="330.502" x2="286.802" y2="326.976" gradientUnits="userSpaceOnUse">
<stop stop-color="#3C5186"/>
<stop offset="1" stop-color="#5D7DBE"/>
</linearGradient>
<linearGradient id="paint17_linear_2_5005" x1="288.222" y1="335.809" x2="306.513" y2="335.809" gradientUnits="userSpaceOnUse">
<stop offset="0.1499" stop-color="#F49719"/>
<stop offset="1" stop-color="#FCC00E"/>
</linearGradient>
<linearGradient id="paint18_linear_2_5005" x1="73.6758" y1="240.05" x2="102.058" y2="240.05" gradientUnits="userSpaceOnUse">
<stop stop-color="#3C5186"/>
<stop offset="0.116" stop-color="#40578D"/>
<stop offset="0.6906" stop-color="#5472B0"/>
<stop offset="1" stop-color="#5D7DBE"/>
</linearGradient>
<linearGradient id="paint19_linear_2_5005" x1="183.373" y1="290.102" x2="215.02" y2="290.102" gradientUnits="userSpaceOnUse">
<stop stop-color="#FCC00E"/>
<stop offset="0.8501" stop-color="#F49719"/>
</linearGradient>
<linearGradient id="paint20_linear_2_5005" x1="183.373" y1="285.768" x2="215.021" y2="285.768" gradientUnits="userSpaceOnUse">
<stop offset="0.1499" stop-color="#F49719"/>
<stop offset="1" stop-color="#FCC00E"/>
</linearGradient>
<linearGradient id="paint21_linear_2_5005" x1="0.511857" y1="349.618" x2="36.3218" y2="349.618" gradientUnits="userSpaceOnUse">
<stop stop-color="#3C5186"/>
<stop offset="0.116" stop-color="#40578D"/>
<stop offset="0.6906" stop-color="#5472B0"/>
<stop offset="1" stop-color="#5D7DBE"/>
</linearGradient>
<linearGradient id="paint22_linear_2_5005" x1="220.677" y1="256.44" x2="255.305" y2="256.44" gradientUnits="userSpaceOnUse">
<stop stop-color="#4A66A4"/>
<stop offset="0.4999" stop-color="#5573B3"/>
<stop offset="1" stop-color="#5D7DBE"/>
</linearGradient>
<linearGradient id="paint23_linear_2_5005" x1="152.832" y1="283.259" x2="141.088" y2="283.259" gradientUnits="userSpaceOnUse">
<stop stop-color="#A9D7F5"/>
<stop offset="1" stop-color="white"/>
</linearGradient>
<linearGradient id="paint24_linear_2_5005" x1="164.906" y1="280.96" x2="141.09" y2="280.96" gradientUnits="userSpaceOnUse">
<stop stop-color="#A9D7F5"/>
<stop offset="1" stop-color="white"/>
</linearGradient>
<linearGradient id="paint25_linear_2_5005" x1="164.906" y1="290.754" x2="157.385" y2="290.754" gradientUnits="userSpaceOnUse">
<stop stop-color="#A9D7F5"/>
<stop offset="1" stop-color="white"/>
</linearGradient>
<linearGradient id="paint26_linear_2_5005" x1="134.702" y1="263.139" x2="164.459" y2="263.139" gradientUnits="userSpaceOnUse">
<stop offset="0.1499" stop-color="#F49719"/>
<stop offset="1" stop-color="#FCC00E"/>
</linearGradient>
</defs>
</svg>
